# xmcd
#
# Track frame offsets:
#	182
#	13915
#	30762
#
# Disc length: 828 seconds
#
# Revision: 1
# Processed by: cddbd v1.5.2PL0 Copyright (c) Steve Scherf et al.
# Submitted via: audiograbber 1.83.01
#
DISCID=15033a03
DTITLE=Art of Noise - Moments in Love (promo)
DYEAR=1992
DGENRE=Rock
TTITLE0=Moments in Love 
TTITLE1=Moments in Love 
TTITLE2=Moments in Love 
EXTD=
EXTT0=
EXTT1=
EXTT2=
PLAYORDER=
